<?xml version="1.0" encoding="UTF-8" standalone="no"?>
<!DOCTYPE svg PUBLIC "-//W3C//DTD SVG 1.1//EN"
 "http://www.w3.org/Graphics/SVG/1.1/DTD/svg11.dtd">
<!-- Generated by graphviz version 2.36.0 (20140111.2315)
 -->
<!-- Title: G Pages: 1 -->
<svg width="1250pt" height="1243pt"
 viewBox="0.00 0.00 1250.00 1243.00" xmlns="http://www.w3.org/2000/svg" xmlns:xlink="http://www.w3.org/1999/xlink">
<g id="graph0" class="graph" transform="scale(1 1) rotate(0) translate(4 1239)">
<title>G</title>
<polygon fill="white" stroke="none" points="-4,4 -4,-1239 1246,-1239 1246,4 -4,4"/>
<!-- n0 -->
<g id="node1" class="node"><title>n0</title>
<polygon fill="aliceblue" stroke="black" points="629.238,-37.6409 629.238,-181.641 781.238,-181.641 781.238,-37.6409 629.238,-37.6409"/>
<text text-anchor="middle" x="705.238" y="-166.441" font-family="Times,serif" font-size="14.00">«JavaScript»</text>
<text text-anchor="middle" x="705.238" y="-151.441" font-family="Times,serif" font-size="14.00">zooracer//gamification.js</text>
<polyline fill="none" stroke="black" points="629.238,-143.641 781.238,-143.641 "/>
<text text-anchor="start" x="637.238" y="-128.441" font-family="Times,serif" font-size="14.00">+Game : object</text>
<text text-anchor="start" x="637.238" y="-113.441" font-family="Times,serif" font-size="14.00">+Player : object</text>
<polyline fill="none" stroke="black" points="629.238,-105.641 781.238,-105.641 "/>
<text text-anchor="start" x="637.238" y="-90.4409" font-family="Times,serif" font-size="14.00">&#45;WS.onclose()</text>
<text text-anchor="start" x="637.238" y="-75.4409" font-family="Times,serif" font-size="14.00">&#45;WS.onerror()</text>
<text text-anchor="start" x="637.238" y="-60.4409" font-family="Times,serif" font-size="14.00">&#45;WS.onmessage()</text>
<text text-anchor="start" x="637.238" y="-45.4409" font-family="Times,serif" font-size="14.00">&#45;WS.onopen()</text>
</g>
<!-- n1 -->
<g id="node2" class="node"><title>n1</title>
<polygon fill="lavenderblush" stroke="black" points="846.164,-687.262 846.164,-748.262 976.164,-748.262 976.164,-687.262 846.164,-687.262"/>
<text text-anchor="middle" x="911.164" y="-733.062" font-family="Times,serif" font-size="14.00">«HTML»</text>
<text text-anchor="middle" x="911.164" y="-718.062" font-family="Times,serif" font-size="14.00">zooracer//index.html</text>
<polyline fill="none" stroke="black" points="846.164,-710.262 976.164,-710.262 "/>
<text text-anchor="start" x="854.164" y="-695.062" font-family="Times,serif" font-size="14.00">iframe notes</text>
</g>
<!-- n9 -->
<g id="node6" class="node"><title>n9</title>
<polygon fill="palegreen" stroke="black" points="1011.86,-629.625 1011.86,-667.625 1132.86,-667.625 1132.86,-629.625 1011.86,-629.625"/>
<text text-anchor="middle" x="1072.36" y="-652.425" font-family="Times,serif" font-size="14.00">«CSS»</text>
<text text-anchor="middle" x="1072.36" y="-637.425" font-family="Times,serif" font-size="14.00">zooracer/papert.css</text>
</g>
<!-- n1&#45;&gt;n9 -->
<g id="edge1" class="edge"><title>n1&#45;&gt;n9</title>
<path fill="none" stroke="black" d="M988.265,-717C988.265,-717 1072.36,-717 1072.36,-717 1072.36,-717 1072.36,-687.903 1072.36,-667.671"/>
<polygon fill="black" stroke="black" points="988.265,-717 982.265,-721 976.265,-717 982.265,-713 988.265,-717"/>
</g>
<!-- n11 -->
<g id="node8" class="node"><title>n11</title>
<polygon fill="aliceblue" stroke="black" points="769.96,-640.259 769.96,-678.259 984.96,-678.259 984.96,-640.259 769.96,-640.259"/>
<text text-anchor="middle" x="877.46" y="-663.059" font-family="Times,serif" font-size="14.00">«Link»</text>
<text text-anchor="middle" x="877.46" y="-648.059" font-family="Times,serif" font-size="14.00">link http://code.google.com/p/papert</text>
</g>
<!-- n1&#45;&gt;n11 -->
<g id="edge3" class="edge"><title>n1&#45;&gt;n11</title>
<path fill="none" stroke="black" d="M911.164,-679.242C911.164,-679.242 911.164,-678.364 911.164,-678.364"/>
<polygon fill="black" stroke="black" points="911.164,-675.14 915.164,-681.14 911.164,-687.14 907.164,-681.14 911.164,-675.14"/>
</g>
<!-- n16 -->
<g id="node9" class="node"><title>n16</title>
<polygon fill="peru" stroke="black" points="666.031,-747.416 666.031,-876.416 794.031,-876.416 794.031,-747.416 666.031,-747.416"/>
<text text-anchor="middle" x="730.031" y="-861.216" font-family="Times,serif" font-size="14.00">«Forms»</text>
<text text-anchor="middle" x="730.031" y="-846.216" font-family="Times,serif" font-size="14.00">Form: input</text>
<polyline fill="none" stroke="black" points="666.031,-838.416 794.031,-838.416 "/>
<text text-anchor="start" x="674.031" y="-823.216" font-family="Times,serif" font-size="14.00">input button _input2</text>
<text text-anchor="start" x="674.031" y="-808.216" font-family="Times,serif" font-size="14.00">input button _input4</text>
<text text-anchor="start" x="674.031" y="-793.216" font-family="Times,serif" font-size="14.00">input hidden img</text>
<text text-anchor="start" x="674.031" y="-778.216" font-family="Times,serif" font-size="14.00">textarea code</text>
<polyline fill="none" stroke="black" points="666.031,-770.416 794.031,-770.416 "/>
<text text-anchor="start" x="674.031" y="-755.216" font-family="Times,serif" font-size="14.00">canvas canvas</text>
</g>
<!-- n1&#45;&gt;n16 -->
<g id="edge4" class="edge"><title>n1&#45;&gt;n16</title>
<path fill="none" stroke="black" d="M862.783,-753.434C862.783,-753.434 862.783,-754 862.783,-754 862.783,-754 828.021,-754 794.074,-754"/>
<polygon fill="black" stroke="black" points="862.783,-760.338 858.783,-754.338 862.783,-748.338 866.783,-754.338 862.783,-760.338"/>
</g>
<!-- n10 -->
<g id="node17" class="node"><title>n10</title>
<polygon fill="palegreen" stroke="black" points="879.402,-759.848 879.402,-797.848 1007.4,-797.848 1007.4,-759.848 879.402,-759.848"/>
<text text-anchor="middle" x="943.402" y="-782.648" font-family="Times,serif" font-size="14.00">«CSS»</text>
<text text-anchor="middle" x="943.402" y="-767.648" font-family="Times,serif" font-size="14.00">zooracer/favicon.ico</text>
</g>
<!-- n1&#45;&gt;n10 -->
<g id="edge2" class="edge"><title>n1&#45;&gt;n10</title>
<path fill="none" stroke="black" d="M927.783,-758.398C927.783,-758.398 927.783,-759.52 927.783,-759.52"/>
<polygon fill="black" stroke="black" points="927.783,-760.305 923.783,-754.305 927.783,-748.305 931.783,-754.305 927.783,-760.305"/>
</g>
<!-- n5 -->
<g id="node3" class="node"><title>n5</title>
<polygon fill="aliceblue" stroke="black" points="73.7381,-407.641 73.7381,-821.641 248.738,-821.641 248.738,-407.641 73.7381,-407.641"/>
<text text-anchor="middle" x="161.238" y="-806.441" font-family="Times,serif" font-size="14.00">«JavaScript»</text>
<text text-anchor="middle" x="161.238" y="-791.441" font-family="Times,serif" font-size="14.00">zooracer//parser.js</text>
<polyline fill="none" stroke="black" points="73.7381,-783.641 248.738,-783.641 "/>
<text text-anchor="start" x="81.7381" y="-768.441" font-family="Times,serif" font-size="14.00">+comment : object = srn</text>
<text text-anchor="start" x="81.7381" y="-753.441" font-family="Times,serif" font-size="14.00">+empty : object = s</text>
<text text-anchor="start" x="81.7381" y="-738.441" font-family="Times,serif" font-size="14.00">+num_rx : object = sd</text>
<text text-anchor="start" x="81.7381" y="-723.441" font-family="Times,serif" font-size="14.00">+ops_rx : object = s</text>
<text text-anchor="start" x="81.7381" y="-708.441" font-family="Times,serif" font-size="14.00">+sym_rx : object = sazAZ</text>
<text text-anchor="start" x="81.7381" y="-693.441" font-family="Times,serif" font-size="14.00">+token : identifier = optoken</text>
<text text-anchor="start" x="81.7381" y="-678.441" font-family="Times,serif" font-size="14.00">+var_rx : object = sazAZ</text>
<text text-anchor="start" x="81.7381" y="-663.441" font-family="Times,serif" font-size="14.00">+wrd_rx : object = sazAZ</text>
<polyline fill="none" stroke="black" points="73.7381,-655.641 248.738,-655.641 "/>
<text text-anchor="start" x="81.7381" y="-640.441" font-family="Times,serif" font-size="14.00">&#45;Command(args, code)</text>
<text text-anchor="start" x="81.7381" y="-625.441" font-family="Times,serif" font-size="14.00">&#45;ListTokenizer(list)</text>
<text text-anchor="start" x="81.7381" y="-610.441" font-family="Times,serif" font-size="14.00">&#45;Parser()</text>
<text text-anchor="start" x="81.7381" y="-595.441" font-family="Times,serif" font-size="14.00">&#45;Token(type, data)</text>
<text text-anchor="start" x="81.7381" y="-580.441" font-family="Times,serif" font-size="14.00">&#45;Tokenizer()</text>
<text text-anchor="start" x="81.7381" y="-565.441" font-family="Times,serif" font-size="14.00">&#45;addCommand(wrd, n)</text>
<text text-anchor="start" x="81.7381" y="-550.441" font-family="Times,serif" font-size="14.00">&#45;addInfix(wrd, p)</text>
<text text-anchor="start" x="81.7381" y="-535.441" font-family="Times,serif" font-size="14.00">&#45;load(text)</text>
<text text-anchor="start" x="81.7381" y="-520.441" font-family="Times,serif" font-size="14.00">&#45;load(tk)</text>
<text text-anchor="start" x="81.7381" y="-505.441" font-family="Times,serif" font-size="14.00">&#45;look()</text>
<text text-anchor="start" x="81.7381" y="-490.441" font-family="Times,serif" font-size="14.00">&#45;next()</text>
<text text-anchor="start" x="81.7381" y="-475.441" font-family="Times,serif" font-size="14.00">&#45;next(precedent)</text>
<text text-anchor="start" x="81.7381" y="-460.441" font-family="Times,serif" font-size="14.00">&#45;op_token()</text>
<text text-anchor="start" x="81.7381" y="-445.441" font-family="Times,serif" font-size="14.00">&#45;peek()</text>
<text text-anchor="start" x="81.7381" y="-430.441" font-family="Times,serif" font-size="14.00">&#45;right()</text>
<text text-anchor="start" x="81.7381" y="-415.441" font-family="Times,serif" font-size="14.00">&#45;toString()</text>
</g>
<!-- n6 -->
<g id="node4" class="node"><title>n6</title>
<polygon fill="aliceblue" stroke="black" points="872.728,-390.795 872.728,-504.795 1015.73,-504.795 1015.73,-390.795 872.728,-390.795"/>
<text text-anchor="middle" x="944.228" y="-489.595" font-family="Times,serif" font-size="14.00">«JavaScript»</text>
<text text-anchor="middle" x="944.228" y="-474.595" font-family="Times,serif" font-size="14.00">zooracer//server.js</text>
<polyline fill="none" stroke="black" points="872.728,-466.795 1015.73,-466.795 "/>
<text text-anchor="start" x="880.728" y="-451.595" font-family="Times,serif" font-size="14.00">+base : object</text>
<text text-anchor="start" x="880.728" y="-436.595" font-family="Times,serif" font-size="14.00">+port : number = 7223</text>
<text text-anchor="start" x="880.728" y="-421.595" font-family="Times,serif" font-size="14.00">+server : variable = ws</text>
<polyline fill="none" stroke="black" points="872.728,-413.795 1015.73,-413.795 "/>
<text text-anchor="start" x="880.728" y="-398.595" font-family="Times,serif" font-size="14.00">&#45;server.IP()</text>
</g>
<!-- n656 -->
<g id="node10" class="node"><title>n656</title>
<polygon fill="azure" stroke="black" points="1073.5,-485.203 1073.5,-523.203 1206.5,-523.203 1206.5,-485.203 1073.5,-485.203"/>
<text text-anchor="middle" x="1140" y="-508.003" font-family="Times,serif" font-size="14.00">«JavaScript Require»</text>
<text text-anchor="middle" x="1140" y="-493.003" font-family="Times,serif" font-size="14.00">http</text>
</g>
<!-- n6&#45;&gt;n656 -->
<g id="edge5" class="edge"><title>n6&#45;&gt;n656</title>
<path fill="none" stroke="red" stroke-dasharray="5,2" d="M1015.74,-494C1015.74,-494 1063.24,-494 1063.24,-494"/>
<polygon fill="red" stroke="red" points="1063.24,-497.5 1073.24,-494 1063.24,-490.5 1063.24,-497.5"/>
<text text-anchor="middle" x="1039.49" y="-482.8" font-family="Times,serif" font-size="14.00" fill="red">«Require»</text>
</g>
<!-- n657 -->
<g id="node11" class="node"><title>n657</title>
<polygon fill="azure" stroke="black" points="874.034,-222.326 874.034,-260.326 1007.03,-260.326 1007.03,-222.326 874.034,-222.326"/>
<text text-anchor="middle" x="940.534" y="-245.126" font-family="Times,serif" font-size="14.00">«JavaScript Require»</text>
<text text-anchor="middle" x="940.534" y="-230.126" font-family="Times,serif" font-size="14.00">fs</text>
</g>
<!-- n6&#45;&gt;n657 -->
<g id="edge6" class="edge"><title>n6&#45;&gt;n657</title>
<path fill="none" stroke="red" stroke-dasharray="5,2" d="M1001.57,-390.556C1001.57,-390.556 1001.57,-270.635 1001.57,-270.635"/>
<polygon fill="red" stroke="red" points="1005.07,-270.635 1001.57,-260.635 998.067,-270.635 1005.07,-270.635"/>
<text text-anchor="middle" x="973.067" y="-319.396" font-family="Times,serif" font-size="14.00" fill="red">«Require»</text>
</g>
<!-- n659 -->
<g id="node13" class="node"><title>n659</title>
<polygon fill="azure" stroke="black" points="697.228,-537.284 697.228,-575.284 830.228,-575.284 830.228,-537.284 697.228,-537.284"/>
<text text-anchor="middle" x="763.728" y="-560.084" font-family="Times,serif" font-size="14.00">«JavaScript Require»</text>
<text text-anchor="middle" x="763.728" y="-545.084" font-family="Times,serif" font-size="14.00">address</text>
</g>
<!-- n6&#45;&gt;n659 -->
<g id="edge8" class="edge"><title>n6&#45;&gt;n659</title>
<path fill="none" stroke="red" stroke-dasharray="5,2" d="M872.459,-447C869.595,-447 867.914,-447 867.914,-447 867.914,-447 867.914,-546 867.914,-546 867.914,-546 840.301,-546 840.301,-546"/>
<polygon fill="red" stroke="red" points="840.301,-542.5 830.301,-546 840.3,-549.5 840.301,-542.5"/>
<text text-anchor="middle" x="896.414" y="-511.834" font-family="Times,serif" font-size="14.00" fill="red">«Require»</text>
</g>
<!-- n660 -->
<g id="node14" class="node"><title>n660</title>
<polygon fill="azure" stroke="black" points="863.1,-340.725 863.1,-378.725 996.1,-378.725 996.1,-340.725 863.1,-340.725"/>
<text text-anchor="middle" x="929.6" y="-363.525" font-family="Times,serif" font-size="14.00">«JavaScript Require»</text>
<text text-anchor="middle" x="929.6" y="-348.525" font-family="Times,serif" font-size="14.00">json&#45;file</text>
</g>
<!-- n6&#45;&gt;n660 -->
<g id="edge9" class="edge"><title>n6&#45;&gt;n660</title>
<path fill="none" stroke="red" stroke-dasharray="5,2" d="M934.414,-390.528C934.414,-390.528 934.414,-388.964 934.414,-388.964"/>
<polygon fill="red" stroke="red" points="937.914,-388.964 934.414,-378.964 930.914,-388.964 937.914,-388.964"/>
<text text-anchor="middle" x="905.914" y="-378.546" font-family="Times,serif" font-size="14.00" fill="red">«Require»</text>
</g>
<!-- n658 -->
<g id="node15" class="node"><title>n658</title>
<polygon fill="azure" stroke="black" points="878.358,-518.253 878.358,-556.253 1011.36,-556.253 1011.36,-518.253 878.358,-518.253"/>
<text text-anchor="middle" x="944.858" y="-541.053" font-family="Times,serif" font-size="14.00">«JavaScript Require»</text>
<text text-anchor="middle" x="944.858" y="-526.053" font-family="Times,serif" font-size="14.00">nodejs&#45;websocket</text>
</g>
<!-- n6&#45;&gt;n658 -->
<g id="edge7" class="edge"><title>n6&#45;&gt;n658</title>
<path fill="none" stroke="red" stroke-dasharray="5,2" d="M944.858,-504.956C944.858,-504.956 944.858,-508.117 944.858,-508.117"/>
<polygon fill="red" stroke="red" points="941.358,-508.117 944.858,-518.117 948.358,-508.117 941.358,-508.117"/>
<text text-anchor="middle" x="973.358" y="-510.337" font-family="Times,serif" font-size="14.00" fill="red">«Require»</text>
</g>
<!-- n7 -->
<g id="node5" class="node"><title>n7</title>
<polygon fill="aliceblue" stroke="black" points="295.738,-0.140888 295.738,-811.141 564.738,-811.141 564.738,-0.140888 295.738,-0.140888"/>
<text text-anchor="middle" x="430.238" y="-795.941" font-family="Times,serif" font-size="14.00">«JavaScript»</text>
<text text-anchor="middle" x="430.238" y="-780.941" font-family="Times,serif" font-size="14.00">zooracer//turtle.js</text>
<polyline fill="none" stroke="black" points="295.738,-773.141 564.738,-773.141 "/>
<text text-anchor="start" x="303.738" y="-757.941" font-family="Times,serif" font-size="14.00">&#45;DelayCommand(that, fun, args)</text>
<text text-anchor="start" x="303.738" y="-742.941" font-family="Times,serif" font-size="14.00">&#45;DelayTurtle(canvas, sprite, speed, draw_bits)</text>
<text text-anchor="start" x="303.738" y="-727.941" font-family="Times,serif" font-size="14.00">&#45;Turtle(canvas, turtle)</text>
<text text-anchor="start" x="303.738" y="-712.941" font-family="Times,serif" font-size="14.00">&#45;addCommand(fun, args)</text>
<text text-anchor="start" x="303.738" y="-697.941" font-family="Times,serif" font-size="14.00">&#45;arc(radius, angle)</text>
<text text-anchor="start" x="303.738" y="-682.941" font-family="Times,serif" font-size="14.00">&#45;arc_point(radius, angle)</text>
<text text-anchor="start" x="303.738" y="-667.941" font-family="Times,serif" font-size="14.00">&#45;backward(d)</text>
<text text-anchor="start" x="303.738" y="-652.941" font-family="Times,serif" font-size="14.00">&#45;call(that)</text>
<text text-anchor="start" x="303.738" y="-637.941" font-family="Times,serif" font-size="14.00">&#45;circle(radius)</text>
<text text-anchor="start" x="303.738" y="-622.941" font-family="Times,serif" font-size="14.00">&#45;clean()</text>
<text text-anchor="start" x="303.738" y="-607.941" font-family="Times,serif" font-size="14.00">&#45;clean_()</text>
<text text-anchor="start" x="303.738" y="-592.941" font-family="Times,serif" font-size="14.00">&#45;clearscreen()</text>
<text text-anchor="start" x="303.738" y="-577.941" font-family="Times,serif" font-size="14.00">&#45;color()</text>
<text text-anchor="start" x="303.738" y="-562.941" font-family="Times,serif" font-size="14.00">&#45;color(args)</text>
<text text-anchor="start" x="303.738" y="-547.941" font-family="Times,serif" font-size="14.00">&#45;color_(args)</text>
<text text-anchor="start" x="303.738" y="-532.941" font-family="Times,serif" font-size="14.00">&#45;crawl(d)</text>
<text text-anchor="start" x="303.738" y="-517.941" font-family="Times,serif" font-size="14.00">&#45;finish()</text>
<text text-anchor="start" x="303.738" y="-502.941" font-family="Times,serif" font-size="14.00">&#45;forward(d)</text>
<text text-anchor="start" x="303.738" y="-487.941" font-family="Times,serif" font-size="14.00">&#45;getstate()</text>
<text text-anchor="start" x="303.738" y="-472.941" font-family="Times,serif" font-size="14.00">&#45;hideturtle()</text>
<text text-anchor="start" x="303.738" y="-457.941" font-family="Times,serif" font-size="14.00">&#45;home()</text>
<text text-anchor="start" x="303.738" y="-442.941" font-family="Times,serif" font-size="14.00">&#45;home_()</text>
<text text-anchor="start" x="303.738" y="-427.941" font-family="Times,serif" font-size="14.00">&#45;left()</text>
<text text-anchor="start" x="303.738" y="-412.941" font-family="Times,serif" font-size="14.00">&#45;left(angle)</text>
<text text-anchor="start" x="303.738" y="-397.941" font-family="Times,serif" font-size="14.00">&#45;paint()</text>
<text text-anchor="start" x="303.738" y="-382.941" font-family="Times,serif" font-size="14.00">&#45;pendown()</text>
<text text-anchor="start" x="303.738" y="-367.941" font-family="Times,serif" font-size="14.00">&#45;penup()</text>
<text text-anchor="start" x="303.738" y="-352.941" font-family="Times,serif" font-size="14.00">&#45;penwidth()</text>
<text text-anchor="start" x="303.738" y="-337.941" font-family="Times,serif" font-size="14.00">&#45;penwidth(w)</text>
<text text-anchor="start" x="303.738" y="-322.941" font-family="Times,serif" font-size="14.00">&#45;penwidth_(w)</text>
<text text-anchor="start" x="303.738" y="-307.941" font-family="Times,serif" font-size="14.00">&#45;radians()</text>
<text text-anchor="start" x="303.738" y="-292.941" font-family="Times,serif" font-size="14.00">&#45;redo()</text>
<text text-anchor="start" x="303.738" y="-277.941" font-family="Times,serif" font-size="14.00">&#45;reset()</text>
<text text-anchor="start" x="303.738" y="-262.941" font-family="Times,serif" font-size="14.00">&#45;right()</text>
<text text-anchor="start" x="303.738" y="-247.941" font-family="Times,serif" font-size="14.00">&#45;right(angle)</text>
<text text-anchor="start" x="303.738" y="-232.941" font-family="Times,serif" font-size="14.00">&#45;savestate()</text>
<text text-anchor="start" x="303.738" y="-217.941" font-family="Times,serif" font-size="14.00">&#45;setheading()</text>
<text text-anchor="start" x="303.738" y="-202.941" font-family="Times,serif" font-size="14.00">&#45;setheading(h)</text>
<text text-anchor="start" x="303.738" y="-187.941" font-family="Times,serif" font-size="14.00">&#45;setstate(state)</text>
<text text-anchor="start" x="303.738" y="-172.941" font-family="Times,serif" font-size="14.00">&#45;setup()</text>
<text text-anchor="start" x="303.738" y="-157.941" font-family="Times,serif" font-size="14.00">&#45;setx()</text>
<text text-anchor="start" x="303.738" y="-142.941" font-family="Times,serif" font-size="14.00">&#45;setx(x)</text>
<text text-anchor="start" x="303.738" y="-127.941" font-family="Times,serif" font-size="14.00">&#45;setxy()</text>
<text text-anchor="start" x="303.738" y="-112.941" font-family="Times,serif" font-size="14.00">&#45;setxy(x, y)</text>
<text text-anchor="start" x="303.738" y="-97.9409" font-family="Times,serif" font-size="14.00">&#45;sety()</text>
<text text-anchor="start" x="303.738" y="-82.9409" font-family="Times,serif" font-size="14.00">&#45;sety(x, y)</text>
<text text-anchor="start" x="303.738" y="-67.9409" font-family="Times,serif" font-size="14.00">&#45;showturtle()</text>
<text text-anchor="start" x="303.738" y="-52.9409" font-family="Times,serif" font-size="14.00">&#45;start()</text>
<text text-anchor="start" x="303.738" y="-37.9409" font-family="Times,serif" font-size="14.00">&#45;stop()</text>
<text text-anchor="start" x="303.738" y="-22.9409" font-family="Times,serif" font-size="14.00">&#45;undo()</text>
<text text-anchor="start" x="303.738" y="-7.94089" font-family="Times,serif" font-size="14.00">&#45;update()</text>
</g>
<!-- n2 -->
<g id="node7" class="node"><title>n2</title>
<polygon fill="aliceblue" stroke="black" points="888.238,-851.141 888.238,-1130.14 1242.24,-1130.14 1242.24,-851.141 888.238,-851.141"/>
<text text-anchor="middle" x="1065.24" y="-1114.94" font-family="Times,serif" font-size="14.00">«JavaScript»</text>
<text text-anchor="middle" x="1065.24" y="-1099.94" font-family="Times,serif" font-size="14.00">zooracer//init.js</text>
<polyline fill="none" stroke="black" points="888.238,-1092.14 1242.24,-1092.14 "/>
<text text-anchor="start" x="896.238" y="-1076.94" font-family="Times,serif" font-size="14.00">+DelayTurtle : variable = undefined</text>
<text text-anchor="start" x="896.238" y="-1061.94" font-family="Times,serif" font-size="14.00">+canvas : variable = undefined</text>
<text text-anchor="start" x="896.238" y="-1046.94" font-family="Times,serif" font-size="14.00">+fast : variable = undefined</text>
<text text-anchor="start" x="896.238" y="-1031.94" font-family="Times,serif" font-size="14.00">+form : variable = undefined</text>
<text text-anchor="start" x="896.238" y="-1016.94" font-family="Times,serif" font-size="14.00">+logo : null</text>
<text text-anchor="start" x="896.238" y="-1001.94" font-family="Times,serif" font-size="14.00">+oldcode : variable = undefined</text>
<text text-anchor="start" x="896.238" y="-986.941" font-family="Times,serif" font-size="14.00">+out : variable = undefined</text>
<text text-anchor="start" x="896.238" y="-971.941" font-family="Times,serif" font-size="14.00">+sprite : variable = undefined</text>
<text text-anchor="start" x="896.238" y="-956.941" font-family="Times,serif" font-size="14.00">+textOutput : variable = undefined</text>
<text text-anchor="start" x="896.238" y="-941.941" font-family="Times,serif" font-size="14.00">+turtle : null</text>
<polyline fill="none" stroke="black" points="888.238,-934.141 1242.24,-934.141 "/>
<text text-anchor="start" x="896.238" y="-918.941" font-family="Times,serif" font-size="14.00">&#45;clearcanvas()</text>
<text text-anchor="start" x="896.238" y="-903.941" font-family="Times,serif" font-size="14.00">&#45;init(canvas_id, turtle_id, form_id, oldcode_id, textoutput_id)</text>
<text text-anchor="start" x="896.238" y="-888.941" font-family="Times,serif" font-size="14.00">&#45;run(speed, drawbits)</text>
<text text-anchor="start" x="896.238" y="-873.941" font-family="Times,serif" font-size="14.00">&#45;setup()</text>
<text text-anchor="start" x="896.238" y="-858.941" font-family="Times,serif" font-size="14.00">&#45;stop()</text>
</g>
<!-- n4 -->
<g id="node12" class="node"><title>n4</title>
<polygon fill="palegreen" stroke="black" points="480.738,-888.641 480.738,-1234.64 605.738,-1234.64 605.738,-888.641 480.738,-888.641"/>
<text text-anchor="middle" x="543.238" y="-1219.44" font-family="Times,serif" font-size="14.00">«CSS»</text>
<text text-anchor="middle" x="543.238" y="-1204.44" font-family="Times,serif" font-size="14.00">zooracer//papert.css</text>
<polyline fill="none" stroke="black" points="480.738,-1196.64 605.738,-1196.64 "/>
<text text-anchor="start" x="488.738" y="-1181.44" font-family="Times,serif" font-size="14.00">#bbcode</text>
<text text-anchor="start" x="488.738" y="-1166.44" font-family="Times,serif" font-size="14.00">#canvas</text>
<text text-anchor="start" x="488.738" y="-1151.44" font-family="Times,serif" font-size="14.00">#code</text>
<text text-anchor="start" x="488.738" y="-1136.44" font-family="Times,serif" font-size="14.00">#content</text>
<text text-anchor="start" x="488.738" y="-1121.44" font-family="Times,serif" font-size="14.00">#footer</text>
<text text-anchor="start" x="488.738" y="-1106.44" font-family="Times,serif" font-size="14.00">#footer a</text>
<text text-anchor="start" x="488.738" y="-1091.44" font-family="Times,serif" font-size="14.00">#htmlsnippet</text>
<text text-anchor="start" x="488.738" y="-1076.44" font-family="Times,serif" font-size="14.00">#left</text>
<text text-anchor="start" x="488.738" y="-1061.44" font-family="Times,serif" font-size="14.00">#main</text>
<text text-anchor="start" x="488.738" y="-1046.44" font-family="Times,serif" font-size="14.00">#notes</text>
<text text-anchor="start" x="488.738" y="-1031.44" font-family="Times,serif" font-size="14.00">#oldcode</text>
<text text-anchor="start" x="488.738" y="-1016.44" font-family="Times,serif" font-size="14.00">#recent</text>
<text text-anchor="start" x="488.738" y="-1001.44" font-family="Times,serif" font-size="14.00">#recent ul</text>
<text text-anchor="start" x="488.738" y="-986.441" font-family="Times,serif" font-size="14.00">#recent ul li</text>
<text text-anchor="start" x="488.738" y="-971.441" font-family="Times,serif" font-size="14.00">#recent ul li a</text>
<text text-anchor="start" x="488.738" y="-956.441" font-family="Times,serif" font-size="14.00">#recent ul li a img</text>
<text text-anchor="start" x="488.738" y="-941.441" font-family="Times,serif" font-size="14.00">#textOutput</text>
<text text-anchor="start" x="488.738" y="-926.441" font-family="Times,serif" font-size="14.00">#turtle</text>
<text text-anchor="start" x="488.738" y="-911.441" font-family="Times,serif" font-size="14.00">.inner</text>
<text text-anchor="start" x="488.738" y="-896.441" font-family="Times,serif" font-size="14.00">body</text>
</g>
<!-- n3 -->
<g id="node16" class="node"><title>n3</title>
<polygon fill="aliceblue" stroke="black" points="-0.261883,-37.6409 -0.261883,-353.641 244.738,-353.641 244.738,-37.6409 -0.261883,-37.6409"/>
<text text-anchor="middle" x="122.238" y="-338.441" font-family="Times,serif" font-size="14.00">«JavaScript»</text>
<text text-anchor="middle" x="122.238" y="-323.441" font-family="Times,serif" font-size="14.00">zooracer//logo.js</text>
<polyline fill="none" stroke="black" points="-0.261883,-315.641 244.738,-315.641 "/>
<text text-anchor="start" x="7.73812" y="-300.441" font-family="Times,serif" font-size="14.00">&#45;Logo()</text>
<text text-anchor="start" x="7.73812" y="-285.441" font-family="Times,serif" font-size="14.00">&#45;SymbolTable(par)</text>
<text text-anchor="start" x="7.73812" y="-270.441" font-family="Times,serif" font-size="14.00">&#45;addAlias(name, wrd)</text>
<text text-anchor="start" x="7.73812" y="-255.441" font-family="Times,serif" font-size="14.00">&#45;addBuiltin(name, grab, aliases)</text>
<text text-anchor="start" x="7.73812" y="-240.441" font-family="Times,serif" font-size="14.00">&#45;addCommand(name, grab, aliases, fun)</text>
<text text-anchor="start" x="7.73812" y="-225.441" font-family="Times,serif" font-size="14.00">&#45;addConstant(name, value)</text>
<text text-anchor="start" x="7.73812" y="-210.441" font-family="Times,serif" font-size="14.00">&#45;addInfix(name, fun, p)</text>
<text text-anchor="start" x="7.73812" y="-195.441" font-family="Times,serif" font-size="14.00">&#45;addPrimitive(name, grab, aliases, fun)</text>
<text text-anchor="start" x="7.73812" y="-180.441" font-family="Times,serif" font-size="14.00">&#45;addTurtleCommand(name, grab, aliases)</text>
<text text-anchor="start" x="7.73812" y="-165.441" font-family="Times,serif" font-size="14.00">&#45;eval(code)</text>
<text text-anchor="start" x="7.73812" y="-150.441" font-family="Times,serif" font-size="14.00">&#45;eval_list(args)</text>
<text text-anchor="start" x="7.73812" y="-135.441" font-family="Times,serif" font-size="14.00">&#45;get(key)</text>
<text text-anchor="start" x="7.73812" y="-120.441" font-family="Times,serif" font-size="14.00">&#45;make_global(key)</text>
<text text-anchor="start" x="7.73812" y="-105.441" font-family="Times,serif" font-size="14.00">&#45;random()</text>
<text text-anchor="start" x="7.73812" y="-90.4409" font-family="Times,serif" font-size="14.00">&#45;run(code)</text>
<text text-anchor="start" x="7.73812" y="-75.4409" font-family="Times,serif" font-size="14.00">&#45;set(key, value)</text>
<text text-anchor="start" x="7.73812" y="-60.4409" font-family="Times,serif" font-size="14.00">&#45;setup()</text>
<text text-anchor="start" x="7.73812" y="-45.4409" font-family="Times,serif" font-size="14.00">&#45;srand(seed)</text>
</g>
<!-- n8 -->
<g id="node18" class="node"><title>n8</title>
<polygon fill="aliceblue" stroke="black" points="629.008,-262.218 629.008,-526.218 853.008,-526.218 853.008,-262.218 629.008,-262.218"/>
<text text-anchor="middle" x="741.008" y="-511.018" font-family="Times,serif" font-size="14.00">«JavaScript»</text>
<text text-anchor="middle" x="741.008" y="-496.018" font-family="Times,serif" font-size="14.00">zooracer//ref/websocketServer.js</text>
<polyline fill="none" stroke="black" points="629.008,-488.218 853.008,-488.218 "/>
<text text-anchor="start" x="637.008" y="-473.018" font-family="Times,serif" font-size="14.00">+Dftr_pemain : array</text>
<text text-anchor="start" x="637.008" y="-458.018" font-family="Times,serif" font-size="14.00">+IP_c : variable = undefined</text>
<text text-anchor="start" x="637.008" y="-443.018" font-family="Times,serif" font-size="14.00">+al_json_lgkp : variable = undefined</text>
<text text-anchor="start" x="637.008" y="-428.018" font-family="Times,serif" font-size="14.00">+al_lkp_pmain : variable = undefined</text>
<text text-anchor="start" x="637.008" y="-413.018" font-family="Times,serif" font-size="14.00">+ekst : string = json</text>
<text text-anchor="start" x="637.008" y="-398.018" font-family="Times,serif" font-size="14.00">+json_aktif : variable = undefined</text>
<text text-anchor="start" x="637.008" y="-383.018" font-family="Times,serif" font-size="14.00">+json_baru : variable = undefined</text>
<text text-anchor="start" x="637.008" y="-368.018" font-family="Times,serif" font-size="14.00">+json_npc : variable = undefined</text>
<text text-anchor="start" x="637.008" y="-353.018" font-family="Times,serif" font-size="14.00">+json_pemain : variable = undefined</text>
<text text-anchor="start" x="637.008" y="-338.018" font-family="Times,serif" font-size="14.00">+json_peta : variable = undefined</text>
<text text-anchor="start" x="637.008" y="-323.018" font-family="Times,serif" font-size="14.00">+lokasi_peta : string = bahanpeta</text>
<text text-anchor="start" x="637.008" y="-308.018" font-family="Times,serif" font-size="14.00">+stat : number = 0</text>
<polyline fill="none" stroke="black" points="629.008,-300.218 853.008,-300.218 "/>
<text text-anchor="start" x="637.008" y="-285.018" font-family="Times,serif" font-size="14.00">&#45;IP()</text>
<text text-anchor="start" x="637.008" y="-270.018" font-family="Times,serif" font-size="14.00">&#45;server(8989)</text>
</g>
<!-- n8&#45;&gt;n657 -->
<g id="edge10" class="edge"><title>n8&#45;&gt;n657</title>
<path fill="none" stroke="red" stroke-dasharray="5,2" d="M817.123,-261.983C817.123,-249.277 817.123,-241 817.123,-241 817.123,-241 863.772,-241 863.772,-241"/>
<polygon fill="red" stroke="red" points="863.772,-244.5 873.772,-241 863.772,-237.5 863.772,-244.5"/>
<text text-anchor="middle" x="801.456" y="-244.8" font-family="Times,serif" font-size="14.00" fill="red">«Require»</text>
</g>
<!-- n8&#45;&gt;n659 -->
<g id="edge11" class="edge"><title>n8&#45;&gt;n659</title>
<path fill="none" stroke="red" stroke-dasharray="5,2" d="M763.728,-526.558C763.728,-526.558 763.728,-527.628 763.728,-527.628"/>
<polygon fill="red" stroke="red" points="760.228,-527.256 763.728,-537.256 767.228,-527.256 760.228,-527.256"/>
<text text-anchor="middle" x="735.228" y="-530.893" font-family="Times,serif" font-size="14.00" fill="red">«Require»</text>
</g>
<!-- n8&#45;&gt;n660 -->
<g id="edge13" class="edge"><title>n8&#45;&gt;n660</title>
<path fill="none" stroke="red" stroke-dasharray="5,2" d="M853.164,-359C853.164,-359 854.15,-359 854.15,-359"/>
<polygon fill="red" stroke="red" points="853.021,-362.5 863.021,-359 853.021,-355.5 853.021,-362.5"/>
<text text-anchor="middle" x="882.157" y="-362.8" font-family="Times,serif" font-size="14.00" fill="red">«Require»</text>
</g>
<!-- n8&#45;&gt;n658 -->
<g id="edge12" class="edge"><title>n8&#45;&gt;n658</title>
<path fill="none" stroke="red" stroke-dasharray="5,2" d="M853.071,-522C853.071,-522 868.343,-522 868.343,-522"/>
<polygon fill="red" stroke="red" points="868.343,-525.5 878.343,-522 868.343,-518.5 868.343,-525.5"/>
<text text-anchor="middle" x="832.207" y="-525.8" font-family="Times,serif" font-size="14.00" fill="red">«Require»</text>
</g>
</g>
</svg>
