<?xml version="1.0" encoding="UTF-8" standalone="no"?>
<!-- Created with Inkscape (http://www.inkscape.org/) -->

<svg
   xmlns:dc="http://purl.org/dc/elements/1.1/"
   xmlns:cc="http://creativecommons.org/ns#"
   xmlns:rdf="http://www.w3.org/1999/02/22-rdf-syntax-ns#"
   xmlns:svg="http://www.w3.org/2000/svg"
   xmlns="http://www.w3.org/2000/svg"
   xmlns:sodipodi="http://sodipodi.sourceforge.net/DTD/sodipodi-0.dtd"
   xmlns:inkscape="http://www.inkscape.org/namespaces/inkscape"
   width="210mm"
   height="297mm"
   viewBox="0 0 744.09448819 1052.3622047"
   id="svg2"
   version="1.1"
   inkscape:version="0.91 r"
   sodipodi:docname="penguin.svg">
  <defs
     id="defs4" />
  <sodipodi:namedview
     id="base"
     pagecolor="#ffffff"
     bordercolor="#666666"
     borderopacity="1.0"
     inkscape:pageopacity="0.0"
     inkscape:pageshadow="2"
     inkscape:zoom="0.35"
     inkscape:cx="-80.714286"
     inkscape:cy="520"
     inkscape:document-units="px"
     inkscape:current-layer="layer1"
     showgrid="false"
     inkscape:window-width="1366"
     inkscape:window-height="718"
     inkscape:window-x="0"
     inkscape:window-y="22"
     inkscape:window-maximized="1" />
  <metadata
     id="metadata7">
    <rdf:RDF>
      <cc:Work
         rdf:about="">
        <dc:format>image/svg+xml</dc:format>
        <dc:type
           rdf:resource="http://purl.org/dc/dcmitype/StillImage" />
        <dc:title></dc:title>
      </cc:Work>
    </rdf:RDF>
  </metadata>
  <g
     inkscape:label="Layer 1"
     inkscape:groupmode="layer"
     id="layer1">
    <path
       style="fill:#ffffff"
       d="m 205.80352,631.05102 0,-108.42099 185.62499,0 185.62501,0 0,108.42099 0,108.42098 -185.62501,0 -185.62499,0 0,-108.42098 z"
       id="path4184"
       inkscape:connector-curvature="0" />
    <path
       inkscape:connector-curvature="0"
       id="path4174"
       d="m 274.37494,298.19388 0,-89.84956 125.625,0 125.625,0 0,89.84956 0,89.84955 -125.625,0 -125.625,0 0,-89.84955 z"
       style="fill:#ffffff" />
    <path
       inkscape:connector-curvature="0"
       id="path4172"
       d="M 254.39696,793.02024 C 152.73633,779.46119 122.74701,766.67101 105.89526,729.68547 94.238747,704.10217 97.288542,694.86961 129.02717,659.65827 L 149.7829,636.63156 128.71183,619.90289 C 67.133608,571.01514 73.306505,489.84833 141.67034,449.51268 c 30.27133,-17.86043 33.22444,-23.8126 33.31294,-67.14247 0.17492,-85.81119 69.46728,-193.45175 142.17844,-220.86492 68.18128,-25.70535 163.41545,-5.23642 219.26469,47.12715 40.8244,38.27648 75.55613,117.33983 75.6719,172.25951 0.0835,39.38303 4.06244,48.57543 27.42891,63.3603 70.41537,44.55433 83.29985,111.3638 31.47211,163.19154 l -30.64568,30.64568 25.67625,30.51448 c 32.04228,38.08009 31.94751,41.53475 -2.18837,79.73944 -29.80501,33.35754 -19.84016,31.32747 -255.39247,52.02921 -32.79819,2.88251 -102.12163,-0.42617 -154.0521,-7.35236 z m 228.74849,-93.95206 c 39.5935,-21.04006 79.35572,-73.80936 79.35572,-105.31471 0,-34.29164 -16.38781,-43.26125 -62.67007,-34.30134 -22.92828,4.43877 -75.23141,8.60553 -116.22915,9.25951 -129.76642,2.06982 -174.99317,33.62812 -130.0591,90.75255 45.02122,57.23518 159.3224,76.95091 229.6026,39.60399 z M 333.90772,330.52578 c 0,-20.41789 5.95297,-31.03616 19.87769,-35.45568 10.93273,-3.46993 19.87769,-9.98457 19.87769,-14.477 0,-4.49236 -8.94496,-18.72654 -19.87769,-31.63145 l -19.87769,-23.46347 -19.87769,23.46347 c -21.79859,25.73087 -25.56247,61.64024 -9.58916,91.48667 15.11953,28.25105 29.46685,23.41982 29.46685,-9.92254 z m 144.52059,8.61006 c 12.67807,-20.51354 6.44777,-81.22375 -9.99347,-97.38057 -15.33508,-15.06976 -17.94828,-14.54339 -35.77984,7.20638 -24.29793,29.637 -24.17843,38.231 0.64086,46.10845 12.70113,4.03119 19.87769,15.03779 19.87769,30.48625 0,24.91724 13.69589,32.28161 25.25445,13.57949 z"
       style="fill:#e1ac9b" />
    <path
       inkscape:connector-curvature="0"
       id="path4170"
       d="m 279.24407,786.82993 c -21.86546,-4.96679 -56.07345,-11.54074 -76.01777,-14.60883 -43.58399,-6.70458 -87.97318,-39.29072 -87.97318,-64.58134 0,-10.08006 11.83097,-26.94564 26.29103,-37.47907 l 26.29103,-19.15168 -35.68125,-32.46925 c -60.953108,-55.46607 -57.724097,-122.0491 7.79349,-160.70549 30.00267,-17.70195 34.93878,-25.83742 34.93878,-57.58408 0,-107.41013 71.76172,-216.09713 157.8877,-239.12957 139.20188,-37.22646 262.40396,59.94404 276.76178,218.28424 4.56726,50.36879 9.315,62.80976 26.47494,69.37505 37.23171,14.24467 60.21318,48.99477 60.21318,91.04801 0,32.79533 -6.37191,45.43531 -37.89809,75.17846 l -37.89809,35.75464 26.82025,21.38569 c 52.59987,41.94169 4.63182,96.34613 -88.79261,100.70682 -30.1081,1.40528 -59.82032,5.69369 -66.02717,9.52969 -18.06588,11.16537 -169.68416,14.32791 -213.18402,4.44671 z m 207.40438,-84.28236 c 44.43086,-21.11694 75.82862,-66.47791 75.6634,-109.31211 -0.18208,-47.28577 -11.78834,-57.74557 -55.81902,-50.30662 -21.2246,3.58586 -84.04804,10.04094 -139.60754,14.34462 -67.095,5.19722 -109.63978,13.47453 -126.69428,24.64905 l -25.67697,16.82416 19.9739,39.15221 c 41.46614,81.2802 155.59994,110.54175 252.16051,64.64869 z M 353.78541,364.50716 c 0,-2.80736 -5.59056,-14.18662 -12.42355,-25.28728 -10.79001,-17.52926 -9.21824,-22.61755 11.9542,-38.69876 21.63043,-16.42907 23.05454,-21.41973 12.63665,-44.28464 -23.66471,-51.93825 -71.80037,-22.57231 -71.80037,43.80304 0,41.49985 16.18227,69.57192 40.10507,69.57192 10.74039,0 19.528,-2.29691 19.528,-5.10428 z m 130.02658,-33.47411 c 20.01524,-66.80494 -15.39519,-123.89836 -55.9627,-90.23032 -21.10915,17.519 -17.63445,44.7 7.9316,62.04447 19.39506,13.158 20.7139,17.91688 9.93884,35.86341 -16.56535,27.59079 -15.80968,30.90083 7.05515,30.90083 14.01513,0 22.72084,-10.82102 31.03711,-38.57839 z"
       style="fill:#9e9f9d" />
    <path
       inkscape:connector-curvature="0"
       id="path4168"
       d="m 175.09054,765.36099 c -60.8992,-22.68927 -77.083062,-65.94845 -34.9903,-93.52874 32.24909,-21.13039 31.32597,-33.88479 -4.96943,-68.65795 -22.73912,-21.78547 -29.81653,-37.40321 -29.81653,-65.79658 0,-31.82347 6.21782,-42.32557 42.81352,-72.3129 39.54094,-32.40087 42.82553,-38.71919 42.97159,-82.6609 0.26955,-81.06543 58.77365,-179.0448 121.09291,-202.79896 35.60778,-13.57248 138.9282,-10.3589 168.80699,5.2505 65.9126,34.43444 111.31841,111.69147 111.31841,189.40616 0,45.87215 3.30558,51.14785 63.55908,101.44031 38.01091,31.72702 36.24744,88.98376 -3.92601,127.47237 -36.43835,34.91016 -37.23441,47.51715 -4.36045,69.05693 31.99665,20.96508 28.95973,50.94525 -7.94097,78.39332 -25.1103,18.67787 -43.13078,20.38131 -233.56287,22.07855 -113.49422,1.01145 -217.44238,-2.29246 -230.99594,-7.34211 z m 313.85252,-46.95007 c 65.83181,-29.89724 103.97328,-101.1353 83.28394,-155.55231 -9.79875,-25.77246 -12.15155,-26.52256 -62.134,-19.80748 -28.57235,3.8387 -95.21168,10.36963 -148.08737,14.51326 -140.83105,11.03633 -175.86508,42.2707 -125.98488,112.32103 45.12745,63.37565 168.22084,86.99225 252.92231,48.5255 z M 359.0239,359.23719 c 3.52638,-5.70577 0.91676,-16.99511 -5.79912,-25.08723 -16.82336,-20.27088 -6.90813,-26.8822 40.31601,-26.8822 47.22415,0 57.13938,6.61132 40.31602,26.8822 -15.08105,18.17154 -5.65147,35.46148 19.34004,35.46148 48.35001,0 70.19695,-113.70111 27.58212,-143.54969 -33.70549,-23.60825 -55.24137,-18.689 -73.67682,16.82941 l -16.76564,32.30125 -9.01326,-26.87679 c -15.77072,-47.02688 -71.86986,-45.1315 -97.79172,3.30399 -11.96048,22.34825 -4.43074,84.80523 12.72713,105.56827 12.45329,15.06991 53.88206,16.42255 62.76524,2.04931 z"
       style="fill:#f08f29" />
    <path
       inkscape:connector-curvature="0"
       id="path4166"
       d="m 268.55759,754.8709 c -3.0587,-9.63718 -12.55865,-17.52218 -21.11098,-17.52218 -20.57978,0 -82.49926,-66.27151 -82.49926,-88.29782 0,-9.52078 -13.41744,-30.16527 -29.81654,-45.8766 -22.73912,-21.78547 -29.81653,-37.40321 -29.81653,-65.79658 0,-31.82347 6.21782,-42.32557 42.81352,-72.3129 39.54094,-32.40087 42.82553,-38.71919 42.97159,-82.6609 0.26955,-81.06543 58.77365,-179.0448 121.09291,-202.79896 35.60778,-13.57248 138.9282,-10.3589 168.80699,5.2505 66.16425,34.56587 111.31841,111.69982 111.31841,190.15826 0,37.18488 4.86829,49.85953 25.89054,67.40636 58.4024,48.74741 63.55907,56.39762 63.55907,94.29229 0,29.13258 -6.89493,44.50162 -29.81654,66.46193 -16.39909,15.71133 -29.81653,35.13398 -29.81653,43.16139 0,20.86593 -48.06394,81.07418 -64.72113,81.07418 -7.70841,0 -22.93329,9.5723 -33.83302,21.27183 -17.89167,19.20448 -30.97731,21.39047 -134.63947,22.49161 -101.58255,1.07912 -115.46291,-0.80059 -120.38303,-16.30241 z m 220.38547,-36.45998 c 65.83181,-29.89724 103.97328,-101.1353 83.28394,-155.55231 -9.80296,-25.78375 -12.12968,-26.52328 -62.134,-19.74825 -28.57235,3.87122 -89.5723,8.88406 -135.55544,11.13962 -139.89807,6.86226 -187.84624,46.35859 -139.20585,114.6678 45.79724,64.31625 168.32126,88.22721 253.61135,49.49314 z m 22.03545,-236.59024 c 14.67156,-10.94322 28.06865,-26.97466 29.77137,-35.62543 3.15571,-16.03327 -19.99266,-43.25902 -53.01054,-62.34773 -17.344,-10.0271 -17.43273,-11.92637 -1.61264,-34.51268 25.12946,-35.8774 22.17444,-103.99578 -5.34773,-123.27309 -33.70549,-23.60825 -55.24137,-18.689 -73.67682,16.82941 l -16.76564,32.30125 -9.01326,-26.87679 c -15.72063,-46.87764 -71.85904,-45.1517 -97.62983,3.00153 -11.78398,22.01852 -3.88363,94.52184 11.32376,103.92049 16.1868,10.00405 9.60402,32.74373 -11.40956,39.41317 -11.26596,3.57568 -25.39295,17.27634 -31.39347,30.44594 -13.42722,29.46963 9.08888,59.0272 56.03807,73.56288 51.75682,16.02412 172.06471,6.03105 202.72629,-16.83895 z M 359.10373,343.90195 c -20.87158,-31.85408 -16.37818,-36.63419 34.43706,-36.63419 50.81525,0 55.30865,4.78011 34.43707,36.63419 -21.46481,32.75939 -47.40933,32.75939 -68.87413,0 z"
       style="fill:#e36621" />
    <path
       inkscape:connector-curvature="0"
       id="path4164"
       d="m 330.68213,770.46471 c -15.44004,-2.61956 -35.5662,-10.8525 -44.7248,-18.29543 -9.15869,-7.443 -36.74821,-28.56265 -61.31004,-46.93258 -24.56191,-18.36992 -49.71514,-43.54351 -55.89614,-55.94138 -6.18101,-12.39788 -22.98291,-34.80043 -37.33754,-49.78344 -18.37232,-19.17657 -26.09933,-37.91821 -26.09933,-63.30321 0,-30.44563 6.66729,-41.52473 42.81352,-71.14385 39.54094,-32.40087 42.82553,-38.71919 42.97159,-82.6609 0.26955,-81.06543 58.77365,-179.0448 121.09291,-202.79896 35.60778,-13.57248 138.9282,-10.3589 168.80699,5.2505 66.16425,34.56587 111.31841,111.69982 111.31841,190.15826 0,37.18488 4.86829,49.85953 25.89054,67.40636 58.03721,48.44265 63.55907,56.53295 63.55907,93.12316 0,26.10331 -7.54939,44.60673 -26.09933,63.96864 -14.35463,14.98301 -31.15653,37.38556 -37.33754,49.78344 -6.181,12.39787 -31.33423,37.57146 -55.89614,55.94138 -24.56183,18.36993 -52.37764,39.68327 -61.81278,47.36298 -18.21393,14.82525 -122.95505,25.83622 -169.93939,17.86503 z m 158.26093,-52.05379 c 45.1536,-20.5063 77.79555,-59.91708 87.21289,-105.29777 8.03861,-38.73733 -13.18392,-80.43913 -39.08328,-76.7977 -10.61294,1.49218 -70.72983,6.49985 -133.59303,11.12817 -177.26805,13.05129 -222.04104,45.78818 -167.45889,122.4418 45.12745,63.37565 168.22084,86.99225 252.92231,48.5255 z m 21.37917,-220.2406 c 36.20872,-15.52742 42.24009,-22.34809 42.24009,-47.76792 0,-30.34488 -37.70058,-70.85212 -65.94281,-70.85212 -17.23984,0 -16.76285,-9.84836 1.65637,-34.20084 8.02574,-10.61095 14.59221,-38.31035 14.59221,-61.55421 0,-32.40517 -5.15174,-45.87007 -22.08912,-57.73348 -33.70549,-23.60825 -55.24137,-18.689 -73.67682,16.82941 l -16.76564,32.30125 -9.01326,-26.87679 c -15.77072,-47.02688 -71.86986,-45.1315 -97.79172,3.30399 -12.34055,23.05852 -4.25724,84.96735 13.99493,107.18457 8.78331,10.69141 8.69013,14.9974 -0.3904,18.0549 -32.9301,11.08778 -62.61655,45.56857 -62.61655,72.72921 0,22.1513 7.09132,32.50702 30.57586,44.65134 69.27351,35.82278 167.19698,37.39232 245.2271,3.93069 z M 355.4875,338.8271 c -16.76731,-26.8488 -11.08738,-31.55934 38.05329,-31.55934 49.14076,0 54.82061,4.71054 38.0533,31.55934 -17.03598,27.27887 -59.07061,27.27887 -76.10659,0 z"
       style="fill:#ee322f" />
    <path
       inkscape:connector-curvature="0"
       id="path4162"
       d="m 330.68213,770.46471 c -15.44004,-2.61956 -35.5662,-10.8525 -44.7248,-18.29543 -9.15869,-7.443 -36.74821,-28.56265 -61.31004,-46.93258 -24.56191,-18.36992 -49.71514,-43.54351 -55.89614,-55.94138 -6.18101,-12.39788 -22.98291,-34.80043 -37.33754,-49.78344 -18.37232,-19.17657 -26.09933,-37.91821 -26.09933,-63.30321 0,-30.44563 6.66729,-41.52473 42.81352,-71.14385 39.54094,-32.40087 42.82553,-38.71919 42.97159,-82.6609 0.26955,-81.06543 58.77365,-179.0448 121.09291,-202.79896 35.60778,-13.57248 138.9282,-10.3589 168.80699,5.2505 66.16425,34.56587 111.31841,111.69982 111.31841,190.15826 0,37.18488 4.86829,49.85953 25.89054,67.40636 58.03721,48.44265 63.55907,56.53295 63.55907,93.12316 0,26.10331 -7.54939,44.60673 -26.09933,63.96864 -14.35463,14.98301 -31.15653,37.38556 -37.33754,49.78344 -6.181,12.39787 -31.33423,37.57146 -55.89614,55.94138 -24.56183,18.36993 -52.37764,39.68327 -61.81278,47.36298 -18.21393,14.82525 -122.95505,25.83622 -169.93939,17.86503 z m 158.26093,-52.05379 c 68.17109,-30.95958 107.20094,-108.5007 80.5157,-159.96142 -11.86237,-22.8758 -10.65174,-26.23156 15.25978,-42.29694 33.35874,-20.6829 44.48301,-44.06089 28.5485,-59.99541 -8.71629,-8.71628 -16.23411,-8.55424 -31.00141,0.66789 -26.87137,16.78147 -29.70331,15.642 -29.70331,-11.9511 0,-24.84139 -40.86607,-65.32382 -65.94281,-65.32382 -17.23984,0 -16.76285,-9.84836 1.65637,-34.20084 8.02574,-10.61094 14.59221,-38.31035 14.59221,-61.55421 0,-32.40516 -5.15174,-45.87007 -22.08912,-57.73348 -33.70549,-23.60825 -55.24137,-18.689 -73.67682,16.82941 l -16.76564,32.30125 -9.01326,-26.87679 c -15.77072,-47.02688 -71.86986,-45.1315 -97.79172,3.30399 -12.34055,23.05852 -4.25724,84.96735 13.99493,107.18457 8.78331,10.69141 8.69013,14.9974 -0.3904,18.0549 -30.52895,10.27923 -62.61655,45.67822 -62.61655,69.0784 0,19.94241 -3.62283,23.77912 -17.39298,18.41994 -32.76209,-12.75067 -36.40806,-10.19988 -42.15247,29.48959 -3.16461,21.86546 -9.38959,45.6278 -13.83321,52.80524 -9.26181,14.95971 19.22531,51.55263 40.13306,51.55263 7.35236,0 13.36791,9.37265 13.36791,20.82816 0,32.77339 38.971,79.15663 83.49695,99.37788 53.00339,24.07125 137.80114,24.07125 190.80452,0 z M 355.4875,338.8271 c -16.76731,-26.8488 -11.08738,-31.55934 38.05329,-31.55934 49.14076,0 54.82061,4.71054 38.0533,31.55934 -17.03598,27.27887 -59.07061,27.27887 -76.10659,0 z"
       style="fill:#945f50" />
    <path
       inkscape:connector-curvature="0"
       id="path4160"
       d="m 338.87714,769.87387 c -10.93272,-2.70838 -23.45432,-11.13461 -27.82582,-18.72495 -4.37142,-7.59033 -22.26134,-20.97565 -39.75538,-29.74505 -17.49396,-8.76948 -61.99645,-45.54735 -98.89446,-81.72872 -58.23495,-57.10399 -67.0872,-70.50871 -67.0872,-101.58899 0,-25.34112 7.26132,-42.62644 24.84711,-59.14742 l 24.84712,-23.34269 0,31.08139 c 0,17.09473 -5.4387,43.01811 -12.08604,57.60738 -11.04842,24.24863 -9.5552,28.55096 17.39298,50.11253 16.21344,12.97258 35.06965,23.60873 41.90257,23.63585 6.833,0.0239 12.42356,4.94954 12.42356,10.93869 0,5.98907 9.62064,24.40018 21.37917,40.91353 64.33073,90.34419 251.81734,88.78824 316.91289,-2.63013 16.76707,-23.54711 23.0574,-45.55021 22.55442,-78.89313 -0.60826,-40.30106 2.98777,-48.70034 28.00154,-65.40754 15.78456,-10.54281 31.21076,-26.99565 34.28051,-36.56175 12.95334,-40.3661 43.9972,-1.68921 43.9972,54.81528 0,28.90685 -10.35803,43.72686 -72.05663,103.09739 -39.6311,38.13575 -86.59215,75.214 -104.35788,82.39621 -17.76564,7.18221 -32.30124,18.66563 -32.30124,25.51866 0,20.20162 -80.91485,30.84763 -134.17442,17.65346 z M 190.80568,406.29222 c -11.71495,-62.44609 33.81124,-166.81533 91.72584,-210.28244 27.61847,-20.72869 128.44209,-32.9328 175.17406,-21.20377 32.79795,8.23175 91.7951,60.66711 111.81305,99.37701 21.42377,41.42829 33.02988,152.82278 16.58022,159.13506 -6.68726,2.56614 -19.24701,-6.15246 -27.91059,-19.37478 -8.66357,-13.22232 -29.20239,-30.996 -45.6418,-39.49713 -24.97815,-12.91668 -28.22918,-18.55964 -19.7841,-34.33943 5.55812,-10.38553 10.10573,-36.81308 10.10573,-58.72792 0,-29.90805 -5.5089,-43.70381 -22.08912,-55.31707 -33.70549,-23.60825 -55.24137,-18.689 -73.67682,16.82941 l -16.76564,32.30125 -9.01326,-26.87679 c -11.49463,-34.2759 -41.38941,-43.96031 -72.5915,-23.51594 -30.73942,20.14127 -38.88593,52.65592 -25.40901,101.41383 8.14285,29.45993 7.74657,39.36196 -1.69788,42.42813 -6.77582,2.19983 -26.55484,18.97159 -43.95347,37.27068 -17.39862,18.29908 -33.67265,33.27104 -36.16459,33.27104 -2.49187,0 -7.30736,-14.80101 -10.70112,-32.89114 z m 162.7804,-71.70694 c -6.91465,-8.33162 -9.83405,-17.88651 -6.48752,-21.23295 7.91593,-7.91602 84.96854,-7.91602 92.88455,0 11.85442,11.85441 -19.45517,36.38142 -46.44232,36.38142 -15.06045,0 -33.04006,-6.81678 -39.95471,-15.14847 z"
       style="fill:#686864" />
    <path
       style="fill:none;fill-rule:evenodd;stroke:#686864;stroke-width:9.497;stroke-linecap:butt;stroke-linejoin:miter;stroke-miterlimit:4;stroke-dasharray:none;stroke-opacity:1"
       d="m 299.60158,280.97787 c 0,0 39.58022,-20.95423 58.20621,2.32824"
       id="path4190"
       inkscape:connector-curvature="0" />
    <path
       inkscape:connector-curvature="0"
       id="path4211"
       d="m 419.60158,280.97787 c 0,0 39.58022,-20.95423 58.20621,2.32824"
       style="fill:none;fill-rule:evenodd;stroke:#686864;stroke-width:9.49699974;stroke-linecap:butt;stroke-linejoin:miter;stroke-miterlimit:4;stroke-dasharray:none;stroke-opacity:1" />
  </g>
</svg>
